HIERARCHY
ROOT Hips
{
	OFFSET -339.306915 540.749023 89.171944
	CHANNELS 6 Xposition Yposition Zposition Zrotation Yrotation Xrotation
	JOINT Spine
	{
		OFFSET 0.000000 2.080078 8.814247
		CHANNELS 6 Xposition Yposition Zposition Zrotation Yrotation Xrotation
		JOINT Spine1
		{
			OFFSET 0.000000 0.000000 8.844139
			CHANNELS 6 Xposition Yposition Zposition Zrotation Yrotation Xrotation
			JOINT Spine2
			{
				OFFSET 0.000000 0.000000 11.682266
				CHANNELS 6 Xposition Yposition Zposition Zrotation Yrotation Xrotation
				JOINT Spine3
				{
					OFFSET 0.000000 0.000000 11.746696
					CHANNELS 6 Xposition Yposition Zposition Zrotation Yrotation Xrotation
					JOINT Neck
					{
						OFFSET 0.000000 0.000000 17.658264
						CHANNELS 6 Xposition Yposition Zposition Zrotation Yrotation Xrotation
						JOINT Neck1
						{
							OFFSET 0.000000 0.000000 5.101517
							CHANNELS 6 Xposition Yposition Zposition Zrotation Yrotation Xrotation
							JOINT Head
							{
								OFFSET 0.000000 0.000000 5.101517
								CHANNELS 6 Xposition Yposition Zposition Zrotation Yrotation Xrotation
								JOINT HeadEnd
								{
									OFFSET 0.000000 0.000000 11.655090
									CHANNELS 6 Xposition Yposition Zposition Zrotation Yrotation Xrotation
									End Site
									{
										OFFSET 0.000000 0.000000 0.100006
									}
								}
							}
						}
					}
					JOINT RightShoulder
					{
						OFFSET -2.625397 0.000000 11.175217
						CHANNELS 6 Xposition Yposition Zposition Zrotation Yrotation Xrotation
						JOINT RightArm
						{
							OFFSET 0.000000 0.000000 10.434708
							CHANNELS 6 Xposition Yposition Zposition Zrotation Yrotation Xrotation
							JOINT RightForeArm
							{
								OFFSET 0.000000 0.000000 29.628418
								CHANNELS 6 Xposition Yposition Zposition Zrotation Yrotation Xrotation
								JOINT RightHand
								{
									OFFSET 0.000000 0.000000 22.857605
									CHANNELS 6 Xposition Yposition Zposition Zrotation Yrotation Xrotation
									JOINT RightHandThumb1
									{
										OFFSET -2.867310 -2.944275 3.959564
										CHANNELS 6 Xposition Yposition Zposition Zrotation Yrotation Xrotation
										JOINT RightHandThumb2
										{
											OFFSET 0.000000 0.000000 3.350403
											CHANNELS 6 Xposition Yposition Zposition Zrotation Yrotation Xrotation
											JOINT RightHandThumb3
											{
												OFFSET 0.000000 0.000000 3.756516
												CHANNELS 6 Xposition Yposition Zposition Zrotation Yrotation Xrotation
												JOINT RightHandThumb4
												{
													OFFSET 0.000000 0.000000 3.147339
													CHANNELS 6 Xposition Yposition Zposition Zrotation Yrotation Xrotation
													End Site
													{
														OFFSET 0.000000 0.000000 0.100006
													}
												}
											}
										}
									}
									JOINT RightHandIndex1
									{
										OFFSET -0.086761 -2.345276 10.030899
										CHANNELS 6 Xposition Yposition Zposition Zrotation Yrotation Xrotation
										JOINT RightHandIndex2
										{
											OFFSET 0.000000 0.000000 4.061096
											CHANNELS 6 Xposition Yposition Zposition Zrotation Yrotation Xrotation
											JOINT RightHandIndex3
											{
												OFFSET 0.000000 0.000000 3.248871
												CHANNELS 6 Xposition Yposition Zposition Zrotation Yrotation Xrotation
												JOINT RightHandIndex4
												{
													OFFSET 0.000000 0.000000 2.639709
													CHANNELS 6 Xposition Yposition Zposition Zrotation Yrotation Xrotation
													End Site
													{
														OFFSET 0.000000 0.000000 0.100006
													}
												}
											}
										}
									}
									JOINT RightHandMiddle1
									{
										OFFSET 0.104095 -0.006775 9.502945
										CHANNELS 6 Xposition Yposition Zposition Zrotation Yrotation Xrotation
										JOINT RightHandMiddle2
										{
											OFFSET 0.000000 0.000000 4.568726
											CHANNELS 6 Xposition Yposition Zposition Zrotation Yrotation Xrotation
											JOINT RightHandMiddle3
											{
												OFFSET 0.000000 0.000000 3.654984
												CHANNELS 6 Xposition Yposition Zposition Zrotation Yrotation Xrotation
												JOINT RightHandMiddle4
												{
													OFFSET 0.000000 0.000000 2.741241
													CHANNELS 6 Xposition Yposition Zposition Zrotation Yrotation Xrotation
													End Site
													{
														OFFSET 0.000000 0.000000 0.100006
													}
												}
											}
										}
									}
									JOINT RightHandRing1
									{
										OFFSET 0.086761 2.267456 8.921707
										CHANNELS 6 Xposition Yposition Zposition Zrotation Yrotation Xrotation
										JOINT RightHandRing2
										{
											OFFSET 0.000000 0.000000 4.061096
											CHANNELS 6 Xposition Yposition Zposition Zrotation Yrotation Xrotation
											JOINT RightHandRing3
											{
												OFFSET 0.000000 0.000000 3.654984
												CHANNELS 6 Xposition Yposition Zposition Zrotation Yrotation Xrotation
												JOINT RightHandRing4
												{
													OFFSET 0.000000 0.000000 2.741241
													CHANNELS 6 Xposition Yposition Zposition Zrotation Yrotation Xrotation
													End Site
													{
														OFFSET 0.000000 0.000000 0.100006
													}
												}
											}
										}
									}
									JOINT RightHandPinky1
									{
										OFFSET -0.173492 4.467224 7.976990
										CHANNELS 6 Xposition Yposition Zposition Zrotation Yrotation Xrotation
										JOINT RightHandPinky2
										{
											OFFSET 0.000000 0.000000 3.350403
											CHANNELS 6 Xposition Yposition Zposition Zrotation Yrotation Xrotation
											JOINT RightHandPinky3
											{
												OFFSET 0.000000 0.000000 2.842758
												CHANNELS 6 Xposition Yposition Zposition Zrotation Yrotation Xrotation
												JOINT RightHandPinky4
												{
													OFFSET 0.000000 0.000000 2.639709
													CHANNELS 6 Xposition Yposition Zposition Zrotation Yrotation Xrotation
													End Site
													{
														OFFSET 0.000000 0.000000 0.100006
													}
												}
											}
										}
									}
									JOINT RightForeArmEnd
									{
										OFFSET 0.000000 0.000000 0.000000
										CHANNELS 6 Xposition Yposition Zposition Zrotation Yrotation Xrotation
										End Site
										{
											OFFSET 0.000000 0.000000 0.100006
										}
									}
								}
								JOINT RightArmEnd
								{
									OFFSET 0.000000 0.000000 0.000000
									CHANNELS 6 Xposition Yposition Zposition Zrotation Yrotation Xrotation
									End Site
									{
										OFFSET 0.000000 0.000000 0.100006
									}
								}
							}
						}
					}
					JOINT LeftShoulder
					{
						OFFSET 2.625397 0.000000 11.175217
						CHANNELS 6 Xposition Yposition Zposition Zrotation Yrotation Xrotation
						JOINT LeftArm
						{
							OFFSET 0.000000 0.000000 10.813629
							CHANNELS 6 Xposition Yposition Zposition Zrotation Yrotation Xrotation
							JOINT LeftForeArm
							{
								OFFSET 0.000000 0.000000 28.724777
								CHANNELS 6 Xposition Yposition Zposition Zrotation Yrotation Xrotation
								JOINT LeftHand
								{
									OFFSET 0.644379 0.328857 25.716171
									CHANNELS 6 Xposition Yposition Zposition Zrotation Yrotation Xrotation
									JOINT LeftHandThumb1
									{
										OFFSET 2.867310 -2.944275 3.959564
										CHANNELS 6 Xposition Yposition Zposition Zrotation Yrotation Xrotation
										JOINT LeftHandThumb2
										{
											OFFSET 0.000000 0.000000 3.350403
											CHANNELS 6 Xposition Yposition Zposition Zrotation Yrotation Xrotation
											JOINT LeftHandThumb3
											{
												OFFSET 0.000000 0.000000 3.756516
												CHANNELS 6 Xposition Yposition Zposition Zrotation Yrotation Xrotation
												JOINT LeftHandThumb4
												{
													OFFSET 0.000000 0.000000 3.100006
													CHANNELS 6 Xposition Yposition Zposition Zrotation Yrotation Xrotation
													End Site
													{
														OFFSET 0.000000 0.000000 0.100006
													}
												}
											}
										}
									}
									JOINT LeftHandIndex1
									{
										OFFSET 0.086761 -2.345276 10.030899
										CHANNELS 6 Xposition Yposition Zposition Zrotation Yrotation Xrotation
										JOINT LeftHandIndex2
										{
											OFFSET 0.000000 0.000000 4.061096
											CHANNELS 6 Xposition Yposition Zposition Zrotation Yrotation Xrotation
											JOINT LeftHandIndex3
											{
												OFFSET 0.000000 0.000000 3.248871
												CHANNELS 6 Xposition Yposition Zposition Zrotation Yrotation Xrotation
												JOINT LeftHandIndex4
												{
													OFFSET 0.000000 0.000000 2.639709
													CHANNELS 6 Xposition Yposition Zposition Zrotation Yrotation Xrotation
													End Site
													{
														OFFSET 0.000000 0.000000 0.100006
													}
												}
											}
										}
									}
									JOINT LeftHandMiddle1
									{
										OFFSET -0.104095 -0.006775 9.502945
										CHANNELS 6 Xposition Yposition Zposition Zrotation Yrotation Xrotation
										JOINT LeftHandMiddle2
										{
											OFFSET 0.000000 0.000000 4.568726
											CHANNELS 6 Xposition Yposition Zposition Zrotation Yrotation Xrotation
											JOINT LeftHandMiddle3
											{
												OFFSET 0.000000 0.000000 3.654984
												CHANNELS 6 Xposition Yposition Zposition Zrotation Yrotation Xrotation
												JOINT LeftHandMiddle4
												{
													OFFSET 0.000000 0.000000 2.741241
													CHANNELS 6 Xposition Yposition Zposition Zrotation Yrotation Xrotation
													End Site
													{
														OFFSET 0.000000 0.000000 0.100006
													}
												}
											}
										}
									}
									JOINT LeftHandRing1
									{
										OFFSET -0.086761 2.267456 8.921707
										CHANNELS 6 Xposition Yposition Zposition Zrotation Yrotation Xrotation
										JOINT LeftHandRing2
										{
											OFFSET 0.000000 0.000000 4.061096
											CHANNELS 6 Xposition Yposition Zposition Zrotation Yrotation Xrotation
											JOINT LeftHandRing3
											{
												OFFSET 0.000000 0.000000 3.654984
												CHANNELS 6 Xposition Yposition Zposition Zrotation Yrotation Xrotation
												JOINT LeftHandRing4
												{
													OFFSET 0.000000 0.000000 2.741241
													CHANNELS 6 Xposition Yposition Zposition Zrotation Yrotation Xrotation
													End Site
													{
														OFFSET 0.000000 0.000000 0.100006
													}
												}
											}
										}
									}
									JOINT LeftHandPinky1
									{
										OFFSET 0.173492 4.467224 7.976990
										CHANNELS 6 Xposition Yposition Zposition Zrotation Yrotation Xrotation
										JOINT LeftHandPinky2
										{
											OFFSET 0.000000 0.000000 3.350403
											CHANNELS 6 Xposition Yposition Zposition Zrotation Yrotation Xrotation
											JOINT LeftHandPinky3
											{
												OFFSET 0.000000 0.000000 2.842758
												CHANNELS 6 Xposition Yposition Zposition Zrotation Yrotation Xrotation
												JOINT LeftHandPinky4
												{
													OFFSET 0.000000 0.000000 2.639709
													CHANNELS 6 Xposition Yposition Zposition Zrotation Yrotation Xrotation
													End Site
													{
														OFFSET 0.000000 0.000000 0.100006
													}
												}
											}
										}
									}
									JOINT LeftForeArmEnd
									{
										OFFSET 0.000000 0.000000 0.000000
										CHANNELS 6 Xposition Yposition Zposition Zrotation Yrotation Xrotation
										End Site
										{
											OFFSET 0.000000 0.000000 0.100006
										}
									}
								}
								JOINT LeftArmEnd
								{
									OFFSET 0.000000 0.000000 0.000000
									CHANNELS 6 Xposition Yposition Zposition Zrotation Yrotation Xrotation
									End Site
									{
										OFFSET 0.000000 0.000000 0.100006
									}
								}
							}
						}
					}
				}
			}
		}
	}
	JOINT RightUpLeg
	{
		OFFSET -11.289948 0.000000 0.000000
		CHANNELS 6 Xposition Yposition Zposition Zrotation Yrotation Xrotation
		JOINT RightLeg
		{
			OFFSET 0.000000 0.000000 -38.200329
			CHANNELS 6 Xposition Yposition Zposition Zrotation Yrotation Xrotation
			JOINT RightFoot
			{
				OFFSET 0.000000 0.000000 -39.900856
				CHANNELS 6 Xposition Yposition Zposition Zrotation Yrotation Xrotation
				JOINT RightToeBase
				{
					OFFSET 0.000000 -15.261658 0.000001
					CHANNELS 6 Xposition Yposition Zposition Zrotation Yrotation Xrotation
					JOINT RightToeBaseEnd
					{
						OFFSET 0.000000 -7.370728 0.000001
						CHANNELS 6 Xposition Yposition Zposition Zrotation Yrotation Xrotation
						End Site
						{
							OFFSET 0.000000 0.000000 0.100000
						}
					}
				}
				JOINT RightLegEnd
				{
					OFFSET 0.000000 0.000000 0.000000
					CHANNELS 6 Xposition Yposition Zposition Zrotation Yrotation Xrotation
					End Site
					{
						OFFSET 0.000000 0.000000 0.100000
					}
				}
			}
			JOINT RightUpLegEnd
			{
				OFFSET 0.000000 0.000000 0.000000
				CHANNELS 6 Xposition Yposition Zposition Zrotation Yrotation Xrotation
				End Site
				{
					OFFSET 0.000000 0.000000 0.099998
				}
			}
		}
	}
	JOINT LeftUpLeg
	{
		OFFSET 11.315674 0.000000 0.000000
		CHANNELS 6 Xposition Yposition Zposition Zrotation Yrotation Xrotation
		JOINT LeftLeg
		{
			OFFSET 0.000000 0.000000 -38.200329
			CHANNELS 6 Xposition Yposition Zposition Zrotation Yrotation Xrotation
			JOINT LeftFoot
			{
				OFFSET 0.000000 0.000000 -39.900856
				CHANNELS 6 Xposition Yposition Zposition Zrotation Yrotation Xrotation
				JOINT LeftToeBase
				{
					OFFSET 0.000000 -15.261658 0.000001
					CHANNELS 6 Xposition Yposition Zposition Zrotation Yrotation Xrotation
					JOINT LeftToeBaseEnd
					{
						OFFSET 0.000000 -7.539978 0.000001
						CHANNELS 6 Xposition Yposition Zposition Zrotation Yrotation Xrotation
						End Site
						{
							OFFSET 0.000000 0.000000 0.100000
						}
					}
				}
				JOINT LeftLegEnd
				{
					OFFSET 0.000000 0.000000 0.000000
					CHANNELS 6 Xposition Yposition Zposition Zrotation Yrotation Xrotation
					End Site
					{
						OFFSET 0.000000 0.000000 0.100000
					}
				}
			}
			JOINT LeftUpLegEnd
			{
				OFFSET 0.000000 0.000000 0.000000
				CHANNELS 6 Xposition Yposition Zposition Zrotation Yrotation Xrotation
				End Site
				{
					OFFSET 0.000000 0.000000 0.099998
				}
			}
		}
	}
}
MOTION
Frames: 2
Frame Time: 0.016667
25.658813 -46.093750 85.661926 -7.790064 8.133100 -6.952903 -0.000023 2.080088 8.814247 -0.208709 -0.623908 6.240690 0.000002 0.000009 8.844154 0.001332 -1.788797 3.102847 0.000013 -0.000011 11.682255 7.767436 -1.335427 0.260888 -0.000046 -0.000013 11.746692 4.145543 -4.121327 -0.504905 -0.000006 -0.000076 17.658291 -1.692290 0.109473 11.437397 -0.000013 0.000025 5.101542 -3.989572 -0.329254 -0.015152 0.000011 0.000015 5.101535 1.625031 -2.691452 -22.431702 0.000001 -0.000000 11.655100 0.000000 -0.000000 -0.000000 -2.625397 -0.000074 11.175226 9.690175 -75.202664 0.026983 0.000015 -0.000021 10.434715 22.614394 -17.228136 -9.445194 0.000002 0.000053 29.628410 12.036315 -0.339589 18.820433 -0.000076 -0.000042 22.857574 -26.889618 26.922412 -26.178537 -2.867317 -2.944275 3.959541 33.202861 -11.604890 61.042022 -0.000010 -0.000019 3.350425 -0.590010 0.577964 -1.182265 0.000030 0.000018 3.756536 -0.408496 0.402671 -0.820800 0.000002 -0.000005 3.147373 0.000000 0.000000 -0.000001 -0.086760 -2.345276 10.030899 18.107110 36.423258 33.571298 0.000011 0.000026 4.061096 -0.885482 -0.028677 -0.000182 0.000045 -0.000037 3.248873 -0.363348 0.015885 0.003583 -0.000008 -0.000011 2.639700 0.000002 -0.000000 0.000001 0.104095 -0.006760 9.502945 13.093096 39.751353 23.910870 0.000001 -0.000019 4.568726 -0.847555 -0.000506 -0.000319 0.000044 0.000023 3.654991 -0.301404 0.000002 0.002802 -0.000007 0.000002 2.741242 -0.000001 -0.000002 -0.000000 0.086739 2.267447 8.921700 3.015337 42.267728 9.364800 -0.000032 0.000022 4.061121 1.206180 -0.034262 -0.063577 -0.000002 -0.000015 3.654986 0.170444 0.018275 -0.062847 -0.000004 0.000004 2.741252 -0.000000 -0.000000 -0.000000 -0.173504 4.467228 7.976986 -8.559905 38.849590 -5.035654 0.000002 0.000029 3.350399 2.049817 -0.000261 -0.000117 0.000008 0.000016 2.842779 0.368378 -0.013057 -0.036831 -0.000001 -0.000000 2.639700 -0.000000 -0.000000 0.000001 0.000015 0.000002 0.000010 0.000000 -0.000000 0.000001 -0.000018 0.000003 0.000007 -0.000000 0.000001 -0.000001 2.625397 -0.000047 11.175220 -7.749312 72.480772 -0.208669 -0.000019 -0.000008 10.813633 -49.098122 8.485709 -11.875838 -0.000023 0.000031 28.724758 -20.185897 5.984949 37.362245 0.644394 0.328814 25.716171 45.736941 -24.277342 -32.550226 2.867310 -2.944275 3.959595 -33.067084 11.900221 60.483627 -0.000001 0.000007 3.350406 1.191944 -1.143635 -2.370717 -0.000004 0.000015 3.756541 0.822707 -0.799193 -1.644068 -0.000003 -0.000005 3.099999 0.000001 -0.000001 -0.000000 0.086777 -2.345262 10.030907 3.026232 -37.666830 11.186775 0.000005 -0.000030 4.061100 -0.631254 -0.027980 0.000729 -0.000015 0.000008 3.248898 -0.123833 0.015436 -0.000703 -0.000004 -0.000006 2.639716 0.000001 0.000000 0.000001 -0.104082 -0.006783 9.502968 -2.913351 -35.822129 9.299402 0.000023 -0.000013 4.568745 -0.611101 -0.000051 0.000093 -0.000008 0.000011 3.654970 -0.239769 -0.000007 0.000259 0.000000 0.000012 2.741261 -0.000001 -0.000001 -0.000000 -0.086761 2.267448 8.921722 -12.201769 -33.509209 7.012708 0.000000 -0.000012 4.061108 1.399818 0.000020 -0.000054 -0.000008 0.000027 3.655018 0.312003 -0.000004 -0.018199 0.000036 0.000030 2.741266 0.000002 -0.000002 -0.000004 0.173492 4.467205 7.977003 -21.062352 -30.611945 3.276779 0.000004 -0.000012 3.350412 2.056268 -0.000028 0.000529 0.000010 -0.000005 2.842766 0.371914 0.000001 0.172909 -0.000013 -0.000082 2.639728 0.000002 -0.000000 -0.000001 0.000022 0.000001 0.000053 0.000000 0.000002 -0.000000 -0.000008 -0.000005 0.000033 0.000000 -0.000003 -0.000001 -11.289967 0.000023 0.000015 -9.746470 14.099747 4.944299 0.000002 0.000038 -38.200325 -1.950371 0.290744 8.475414 0.000015 0.000036 -39.900848 -12.015117 -2.867892 37.886516 -0.000012 -15.261715 0.000000 0.422836 2.603568 -22.555812 -0.000001 -7.370667 0.000001 0.000000 0.000002 0.000001 -0.000008 0.000077 -0.000002 -0.000002 -0.000003 -0.000003 -0.000011 -0.000002 -0.000000 0.000000 -0.000003 0.000000 11.315619 -0.000007 -0.000015 33.952932 -11.184027 -18.699806 -0.000040 0.000067 -38.200302 0.304188 -0.297299 44.342438 0.000021 -0.000010 -39.900856 10.952754 5.314383 5.844938 -0.000008 -15.261620 -0.000002 -0.779982 -1.538328 -19.773360 -0.000012 -7.539989 0.000003 0.000002 0.000000 -0.000001 0.000003 0.000012 -0.000004 -0.000002 0.000001 0.000002 -0.000014 0.000013 0.000000 -0.000002 -0.000001 0.000001 
26.558258 -46.310425 87.180954 -8.330164 7.881468 -5.880521 -0.000005 2.080079 8.814228 -0.106362 -0.663142 5.609129 -0.000004 -0.000001 8.844163 0.037951 -1.733715 2.872539 0.000007 -0.000005 11.682277 7.621466 -1.213244 -0.154262 -0.000021 0.000010 11.746693 4.042976 -3.986933 -0.717322 0.000013 -0.000006 17.658249 -1.510582 0.424839 12.087726 -0.000012 0.000029 5.101541 -3.844360 -0.336973 0.420597 0.000023 0.000013 5.101543 1.590042 -2.603778 -22.621204 -0.000000 -0.000001 11.655110 0.000000 -0.000000 -0.000001 -2.625397 -0.000010 11.175208 9.199488 -73.581512 0.023030 0.000023 -0.000003 10.434723 22.851089 -16.503178 -10.897785 -0.000009 0.000069 29.628448 11.395440 -0.287359 17.868149 -0.000015 -0.000099 22.857605 -25.585866 27.123211 -26.364052 -2.867302 -2.944366 3.959564 33.202868 -11.604887 61.042002 0.000003 -0.000008 3.350408 -0.590008 0.577970 -1.182220 0.000004 0.000001 3.756522 -0.408489 0.402666 -0.820822 -0.000042 -0.000006 3.147353 0.000001 -0.000001 0.000000 -0.086729 -2.345337 10.030945 17.994825 36.163922 33.423391 -0.000012 -0.000021 4.061076 -0.889284 0.000006 -0.000632 0.000009 0.000025 3.248868 -0.366931 -0.000010 0.003707 -0.000000 0.000003 2.639720 -0.000000 0.000001 0.000000 0.104095 -0.006775 9.502899 13.022389 39.559404 23.771143 -0.000001 -0.000015 4.568748 -0.850509 0.000149 -0.000335 0.000024 0.000020 3.654973 -0.304004 -0.000004 0.002773 -0.000008 0.000010 2.741231 -0.000002 0.000000 0.000000 0.086794 2.267446 8.921730 2.992911 42.167300 9.192063 0.000010 -0.000003 4.061101 1.208589 0.000001 -0.064467 0.000015 0.000019 3.654976 0.172583 -0.000011 -0.064259 0.000009 -0.000008 2.741229 0.000000 -0.000000 0.000000 -0.173458 4.467167 7.976986 -8.551235 38.835954 -5.277146 -0.000006 -0.000030 3.350419 2.051094 -0.000358 -0.000124 0.000001 -0.000008 2.842779 0.371486 -0.010556 -0.037290 -0.000005 -0.000002 2.639729 -0.000000 -0.000002 -0.000002 0.000016 0.000003 0.000005 -0.000000 0.000001 -0.000000 -0.000011 0.000012 0.000006 -0.000001 -0.000000 0.000003 2.625397 0.000020 11.175204 -6.573780 71.486030 -0.118500 0.000019 -0.000019 10.813644 -49.632519 6.942089 -14.881152 -0.000051 -0.000023 28.724751 -21.696595 6.258107 37.689329 0.644363 0.328850 25.716187 45.854209 -25.851943 -33.358473 2.867325 -2.944305 3.959579 -33.000933 12.049483 60.205857 -0.000005 -0.000022 3.350419 1.497325 -1.421693 -2.967838 -0.000021 -0.000024 3.756527 1.031952 -0.995562 -2.056957 -0.000011 0.000007 3.100019 -0.000001 -0.000000 -0.000000 0.086777 -2.345261 10.030899 3.236690 -36.183518 10.504040 -0.000004 0.000026 4.061122 -0.633095 0.019778 0.000202 -0.000011 -0.000003 3.248880 -0.125557 -0.011067 -0.000670 -0.000005 -0.000006 2.639718 0.000001 0.000000 0.000001 -0.104063 -0.006783 9.502937 -2.633653 -34.491144 8.584314 0.000035 0.000003 4.568725 -0.612135 -0.000030 0.000091 -0.000000 0.000013 3.655013 -0.241246 -0.000004 0.000254 -0.000001 -0.000062 2.741277 -0.000001 -0.000000 -0.000003 -0.086769 2.267475 8.921711 -11.873751 -32.510761 6.189616 -0.000043 -0.000024 4.061105 1.403002 0.019957 0.000434 0.000007 0.000015 3.654990 0.314511 -0.010255 -0.018347 0.000026 0.000006 2.741266 -0.000000 0.000000 -0.000001 0.173492 4.467245 7.976988 -20.778911 -30.026355 2.454630 0.000008 -0.000013 3.350409 2.057700 -0.000024 0.000537 0.000002 0.000003 2.842755 0.374893 -0.000008 0.173935 -0.000006 0.000005 2.639726 0.000000 0.000001 -0.000002 0.000012 0.000001 0.000010 0.000000 -0.000002 0.000001 -0.000022 -0.000016 0.000029 0.000002 -0.000002 -0.000001 -11.289946 -0.000044 -0.000015 -6.619535 11.283610 5.286014 0.000014 0.000065 -38.200321 -2.241866 0.334232 8.475313 0.000012 0.000010 -39.900848 -14.372724 -4.081942 38.249800 -0.000004 -15.261638 0.000004 0.748931 2.653573 -23.426888 0.000011 -7.370659 -0.000000 -0.000001 0.000001 0.000001 0.000007 0.000081 0.000002 -0.000003 -0.000002 -0.000002 -0.000007 0.000067 -0.000000 -0.000001 -0.000001 -0.000000 11.315653 0.000039 -0.000027 33.347565 -9.920109 -16.241273 -0.000027 0.000075 -38.200287 0.371134 -0.300651 39.008515 -0.000026 0.000003 -39.900856 12.086382 5.118241 9.297531 -0.000009 -15.261705 0.000007 -0.566488 -1.701864 -20.999236 -0.000012 -7.539926 0.000004 0.000002 -0.000000 -0.000001 0.000004 -0.000091 0.000001 -0.000005 0.000000 0.000000 -0.000026 -0.000001 0.000005 0.000000 0.000002 -0.000001 
